<svg version="1.1" xmlns="http://www.w3.org/2000/svg" xmlns:xlink="http://www.w3.org/1999/xlink"
    width="48px" height="48px" viewBox="0,0,256,256">
    <g fill="none" fill-rule="nonzero" stroke="none" stroke-width="1" stroke-linecap="butt"
        stroke-linejoin="miter" stroke-miterlimit="10" stroke-dasharray="" stroke-dashoffset="0"
        font-family="none" font-weight="none" font-size="none" text-anchor="none"
        style="mix-blend-mode: normal">
        <g transform="scale(5.33333,5.33333)">
            <path
                d="M45.86,33.39c-0.139,-1.014 -0.367,-1.015 -0.482,-2.032c-0.157,-1.383 -0.104,-2.78 -0.05,-4.171c0.158,-4.118 0.018,-6.288 0.173,-10.407c0.081,-2.149 0.031,-4.614 -1.604,-6.011c-1.379,-1.178 -3.384,-1.145 -5.197,-1.096c-1.63,0.044 -3.211,0.046 -4.785,0.023c-0.075,-1.221 -0.059,-2.802 -0.222,-3.673c-0.064,-0.343 -0.134,-0.701 -0.348,-0.977c-0.422,-0.545 -1.22,-0.576 -1.909,-0.559c-4.806,0.122 -9.986,-0.017 -14.79,0.104c-0.409,0.01 -0.832,0.024 -1.2,0.203c-0.883,0.43 -0.973,2.533 -0.856,4.012c-1.547,0.103 -3.095,0.24 -4.653,0.366c-3.48,0.281 -6.75,3.097 -7.373,6.532c-0.25,1.38 -0.107,0.797 0.037,2.193c0.293,2.839 0.585,5.679 0.878,8.518c0.212,2.054 0.423,4.123 0.225,6.178c-0.148,1.528 -0.522,2.036 -0.539,3.571c-0.018,1.535 0.383,3.17 1.521,4.201c1.73,1.566 4.39,1.207 6.707,0.932c10.281,-1.22 20.74,1.18 31.017,-0.078c0.674,-0.083 1.369,-0.189 1.945,-0.548c1.141,-0.712 1.504,-2.195 1.611,-3.536c0.099,-1.248 0.063,-2.506 -0.106,-3.745zM21.141,8.719c-1.436,-0.088 -2.864,-0.086 -4.29,-0.034c-0.03,-0.781 0.122,-1.759 0.403,-1.951c0.445,-0.302 1.021,-0.305 1.558,-0.297c1.927,0.029 4.166,-0.139 6.094,-0.109c1.234,0.019 2.469,0.038 3.703,0.056c1.058,0.016 1.842,0.015 2.885,0.191c0.039,0.579 -0.002,1.995 -0.009,3.055c-1.591,-0.063 -3.187,-0.156 -4.83,-0.308c-1.831,-0.168 -3.678,-0.491 -5.514,-0.603z"
                fill="#7eae18"></path>
            <path
                d="M16.227,26.862l-3.759,0.596c0.027,0.31 0.054,0.619 0.081,0.929c0.065,0.741 0.184,1.579 0.795,2.003c0.71,0.492 1.758,0.112 2.26,-0.591c0.503,-0.702 0.594,-1.612 0.622,-2.475c0.004,-0.091 0.078,-0.411 0.001,-0.462z"
                fill="#ffffff"></path>
            <path
                d="M35.995,27.094l-3.354,0.159c0.057,0.71 0.114,1.42 0.171,2.13c0.029,0.364 0.072,0.759 0.326,1.022c0.188,0.195 0.463,0.281 0.732,0.307c0.764,0.075 1.776,-0.221 1.962,-0.966c0.178,-0.715 0.46,-1.887 0.163,-2.652z"
                fill="#ffffff"></path>
            <path
                d="M18.162,26.469c0.102,-0.651 0.1,-1.599 -0.308,-2.117c-0.456,-0.58 -1.305,-0.618 -2.043,-0.606c-0.705,0.011 -1.41,0.022 -2.115,0.033c-0.727,0.011 -1.476,0.028 -2.141,0.322c-1.205,0.533 -1.886,2.03 -1.497,3.288c0.001,-0.001 2.829,0.267 8.104,-0.92z"
                fill="#ffffff"></path>
            <path
                d="M38.114,25.028c-0.074,-0.186 -0.17,-0.375 -0.337,-0.484c-0.158,-0.103 -0.355,-0.119 -0.542,-0.131c-1.536,-0.105 -3.073,-0.209 -4.609,-0.314c-0.568,-0.039 -1.185,-0.065 -1.655,0.256c-0.562,0.383 -0.726,1.126 -0.844,1.796c-0.053,0.298 -0.105,0.595 -0.158,0.893l8.401,0.172c0.151,-0.789 0.042,-1.442 -0.256,-2.188z"
                fill="#ffffff"></path>
            <path
                d="M46.354,33.323c-0.074,-0.545 -0.176,-0.836 -0.266,-1.094c-0.087,-0.248 -0.162,-0.462 -0.215,-0.927c-0.153,-1.354 -0.1,-2.748 -0.047,-4.096c0.079,-2.079 0.083,-3.688 0.088,-5.245c0.005,-1.534 0.009,-3.121 0.086,-5.161c0.093,-2.459 -0.059,-4.938 -1.779,-6.409c-1.547,-1.322 -3.754,-1.264 -5.536,-1.217c-1.465,0.039 -2.856,0.042 -4.223,0.029c-0.052,-0.434 -0.083,-0.89 -0.104,-1.346c-0.029,-0.646 -0.06,-1.313 -0.174,-1.924c-0.067,-0.363 -0.152,-0.814 -0.444,-1.191c-0.616,-0.796 -1.722,-0.769 -2.317,-0.753c-2.396,0.062 -4.931,0.06 -7.381,0.051c-2.456,-0.003 -4.998,-0.008 -7.408,0.052c-0.417,0.011 -0.936,0.024 -1.405,0.254c-1.341,0.654 -1.256,2.791 -1.092,3.993c-0.978,0.069 -1.952,0.146 -2.914,0.226l-1.326,0.109c-3.736,0.301 -7.174,3.35 -7.825,6.941c-0.168,0.931 -0.176,1.057 -0.09,1.499c0.031,0.162 0.076,0.396 0.122,0.833l0.877,8.519c0.206,1.998 0.419,4.065 0.224,6.079c-0.062,0.637 -0.164,1.089 -0.264,1.527c-0.138,0.601 -0.267,1.168 -0.277,2.086c-0.022,1.947 0.576,3.573 1.686,4.576c1.858,1.685 4.561,1.362 6.94,1.077l0.161,-0.02c5.073,-0.599 10.294,-0.309 15.343,-0.026c2.895,0.162 5.845,0.327 8.799,0.327c2.298,0 4.598,-0.1 6.877,-0.379c0.727,-0.088 1.491,-0.209 2.149,-0.62c1.085,-0.677 1.688,-1.959 1.845,-3.921c0.101,-1.283 0.065,-2.578 -0.11,-3.849zM15.665,5.243c0.275,-0.134 0.641,-0.144 0.993,-0.152c2.396,-0.062 4.931,-0.054 7.381,-0.052c2.459,0.009 5,0.01 7.408,-0.051c0.611,-0.017 1.231,0.017 1.501,0.364c0.145,0.187 0.199,0.48 0.253,0.764c0.101,0.542 0.128,1.146 0.158,1.786c0.019,0.429 0.05,0.861 0.094,1.286c-0.491,-0.01 -0.985,-0.02 -1.468,-0.036c-0.002,-0.313 0.004,-0.668 0.012,-1.019c0.013,-0.571 0.024,-1.162 -0.004,-1.591c-0.016,-0.231 -0.188,-0.421 -0.416,-0.46c-1.009,-0.17 -1.775,-0.181 -2.746,-0.194l-3.917,-0.06c-0.977,-0.011 -2.041,0.021 -3.071,0.055c-1.019,0.033 -2.067,0.068 -3.023,0.055c-0.525,-0.006 -1.257,-0.019 -1.847,0.383c-0.526,0.357 -0.609,1.163 -0.623,1.401c-0.01,0.173 0.003,0.333 0.025,0.485c-0.415,0.018 -0.827,0.044 -1.24,0.069c-0.192,-1.354 -0.081,-2.734 0.53,-3.033zM17.385,8.181c-0.029,-0.098 -0.052,-0.256 -0.033,-0.464c0.029,-0.32 0.135,-0.529 0.183,-0.569c0.305,-0.207 0.76,-0.217 1.27,-0.21c0.977,0.015 2.042,-0.021 3.071,-0.055c1.019,-0.033 2.072,-0.067 3.022,-0.055l3.919,0.06c0.79,0.011 1.439,0.021 2.192,0.12c0.004,0.332 -0.004,0.722 -0.013,1.104c-0.007,0.339 -0.013,0.682 -0.012,0.996c-1.439,-0.065 -2.863,-0.151 -4.283,-0.282c-0.767,-0.07 -1.535,-0.168 -2.304,-0.267c-1.056,-0.134 -2.147,-0.272 -3.228,-0.339c-1.262,-0.079 -2.525,-0.074 -3.784,-0.039zM3.057,15.793c0.574,-3.167 3.614,-5.856 6.921,-6.123l1.327,-0.109c1.112,-0.092 2.199,-0.176 3.281,-0.248c0.074,0.022 0.286,-0.008 0.315,-0.02c2.077,-0.133 4.125,-0.202 6.21,-0.075c1.047,0.064 2.122,0.201 3.161,0.333c0.781,0.1 1.562,0.198 2.339,0.271c1.563,0.144 3.128,0.237 4.716,0.302c0.054,0.02 0.255,0.018 0.28,0.012c0.729,0.028 1.472,0.046 2.219,0.058c0.062,0.028 0.346,0.016 0.374,0.005c1.458,0.018 2.944,0.016 4.513,-0.025c1.689,-0.046 3.604,-0.094 4.858,0.977c1.468,1.255 1.508,3.555 1.43,5.612c-0.01,0.262 -0.015,0.497 -0.023,0.745c-0.03,0.058 -0.049,0.123 -0.054,0.192c-0.088,1.275 -0.25,2.784 -0.789,4.307c-0.702,1.986 -1.771,4.329 -3.821,4.824c-0.455,0.112 -0.923,0.118 -1.404,0.075c0.066,-0.677 -0.031,-1.317 -0.331,-2.064c-0.094,-0.236 -0.24,-0.532 -0.525,-0.717c-0.271,-0.178 -0.567,-0.198 -0.783,-0.213l-4.612,-0.312c-0.533,-0.034 -1.336,-0.091 -1.971,0.342c-0.714,0.487 -0.919,1.351 -1.055,2.122l-0.151,0.854c-0.002,0 -0.004,0 -0.006,0c-1.678,0.055 -3.375,-0.211 -5.025,-0.469c-1.655,-0.258 -3.365,-0.525 -5.089,-0.484c-0.219,0.005 -0.436,0.025 -0.654,0.039c0.029,-0.575 -0.021,-1.404 -0.461,-1.961c-0.649,-0.826 -1.815,-0.807 -2.443,-0.798l-2.114,0.033c-0.733,0.011 -1.565,0.023 -2.335,0.364c-1.301,0.575 -2.066,2.049 -1.865,3.438c-1.052,-0.068 -1.97,-0.277 -2.786,-0.636c-1.757,-0.771 -2.979,-2.52 -3.188,-4.56v0l-0.416,-4.04c-0.05,-0.484 -0.1,-0.741 -0.135,-0.921c-0.056,-0.281 -0.059,-0.298 0.092,-1.13zM42.571,31.927c-0.094,1.795 -0.001,4.348 -1.693,5.52c-0.923,0.639 -2.338,0.81 -3.427,0.923c-4.369,0.452 -8.805,-0.686 -13.183,-0.68c-4.456,0.005 -9.302,1.195 -13.711,0.616c-5.718,-0.751 -3.13,-6.609 -3.522,-10.679c1.082,0.353 2.199,0.484 3.246,0.484c0.612,0 1.193,-0.042 1.734,-0.1l0.037,0.421c0.054,0.622 0.155,1.779 1.008,2.371c0.315,0.219 0.669,0.314 1.023,0.314c0.744,0 1.497,-0.423 1.929,-1.025c0.575,-0.803 0.684,-1.796 0.723,-2.804c0.002,-0.015 0.003,-0.033 0.005,-0.048c0.88,-0.141 1.767,-0.253 2.646,-0.274c1.62,-0.044 3.299,0.221 4.912,0.473c1.695,0.265 3.455,0.535 5.212,0.48c0.882,-0.029 1.765,-0.142 2.617,-0.25c0.015,-0.002 0.03,-0.004 0.045,-0.006l0.141,1.76c0.029,0.368 0.074,0.925 0.465,1.329c0.249,0.257 0.609,0.415 1.043,0.458c0.096,0.009 0.192,0.014 0.291,0.014c0.951,0 1.978,-0.444 2.205,-1.356c0.139,-0.555 0.366,-1.483 0.284,-2.308c0.239,0.038 0.478,0.071 0.718,0.115c1.049,0.193 2.133,0.396 3.228,0.13c0.714,-0.173 1.315,-0.52 1.84,-0.963c0.179,1.69 0.273,3.379 0.184,5.085zM11.759,24.557c0.584,-0.258 1.308,-0.269 1.947,-0.278l2.113,-0.033c0.67,-0.013 1.34,0.031 1.643,0.416c0.232,0.295 0.281,0.889 0.235,1.436c-0.95,0.114 -1.89,0.28 -2.809,0.449c-0.679,0.125 -1.358,0.25 -2.04,0.352c-0.848,0.125 -1.62,0.188 -2.339,0.201c-0.228,-0.992 0.315,-2.129 1.25,-2.543zM15.721,27.411c-0.03,0.764 -0.121,1.537 -0.521,2.097c-0.352,0.492 -1.101,0.797 -1.569,0.471c-0.432,-0.299 -0.526,-1.001 -0.582,-1.636l-0.041,-0.46c0.689,-0.102 1.375,-0.228 2.062,-0.354c0.215,-0.039 0.433,-0.078 0.651,-0.118zM37.92,26.765c-0.139,-0.025 -0.278,-0.048 -0.419,-0.074c-0.44,-0.081 -0.881,-0.162 -1.32,-0.211c-1.411,-0.156 -2.819,0.022 -4.18,0.196c-0.49,0.062 -0.99,0.12 -1.49,0.167l0.107,-0.606c0.105,-0.597 0.241,-1.201 0.635,-1.47c0.321,-0.22 0.798,-0.206 1.338,-0.17l4.609,0.313c0.1,0.007 0.25,0.017 0.305,0.053c0.027,0.018 0.074,0.075 0.145,0.251c0.23,0.577 0.311,1.051 0.27,1.551zM35.347,29.625c-0.104,0.42 -0.833,0.653 -1.428,0.589c-0.191,-0.019 -0.342,-0.074 -0.422,-0.157c-0.131,-0.135 -0.163,-0.415 -0.188,-0.714l-0.145,-1.801c0.811,-0.091 1.602,-0.137 2.393,-0.096c0.157,0.654 -0.081,1.665 -0.21,2.179zM45.468,37.094c-0.129,1.601 -0.592,2.661 -1.378,3.152c-0.485,0.303 -1.101,0.397 -1.741,0.476c-5.122,0.628 -10.397,0.331 -15.499,0.046c-2.896,-0.162 -5.846,-0.327 -8.801,-0.327c-2.243,0 -4.49,0.095 -6.715,0.359l-0.162,0.019c-2.17,0.26 -4.629,0.554 -6.15,-0.825c-1.207,-1.091 -1.368,-2.864 -1.357,-3.823c0.009,-0.812 0.122,-1.305 0.252,-1.875c0.102,-0.447 0.217,-0.954 0.285,-1.654c0.204,-2.112 -0.014,-4.23 -0.226,-6.277l-0.097,-0.938c0.558,0.732 1.264,1.332 2.082,1.756c0.803,3.893 -2.29,9.788 2.733,11.758c2.121,0.832 4.643,0.372 6.841,0.208c3.229,-0.241 6.462,-0.508 9.702,-0.452c4.863,0.085 10.895,2.06 15.537,-0.075c4.096,-1.884 2.957,-9.145 2.51,-12.726c0.712,-0.926 1.227,-2.041 1.628,-3.112c-0.006,1.303 -0.019,2.685 -0.085,4.385c-0.053,1.386 -0.108,2.818 0.053,4.247c0.066,0.577 0.167,0.865 0.265,1.145c0.082,0.233 0.158,0.454 0.22,0.899c0.163,1.198 0.198,2.422 0.103,3.634z"
                fill="#010101"></path>
        </g>
    </g>
</svg>