<svg version="1.1" xmlns="http://www.w3.org/2000/svg" xmlns:xlink="http://www.w3.org/1999/xlink"
    width="512" height="512" viewBox="0,0,256,256">
    <g fill="none" fill-rule="nonzero" stroke="none" stroke-width="1" stroke-linecap="butt"
        stroke-linejoin="miter" stroke-miterlimit="10" stroke-dasharray="" stroke-dashoffset="0"
        font-family="none" font-weight="none" font-size="none" text-anchor="none"
        style="mix-blend-mode: normal">
        <g transform="scale(0.5,0.5)">
            <path
                d="M174.1,446.5c-1,0.6 -2,1.3 -3,1.9c-2.6,1.7 -5.8,0.9 -7.6,-1.5c-6.9,-8.8 -6.6,-23.3 -7.3,-33.9c-0.9,-13.3 -5.1,-26.3 -5.6,-39.6c-9,1.8 -18.2,3.1 -27.3,4.6c-7.9,1.3 -16,1.9 -23.6,4.7c-7.2,2.6 -13.2,7.1 -12.4,15.5c0.1,1.3 0.4,2.6 0.7,3.8c2.1,1.1 2.7,3.4 2.2,5.6c2.7,5.1 7,9.6 11.3,13.3c20.2,17.4 45.7,24.7 71.3,30.4c1,0.2 2.1,0.5 3.1,0.7c-0.8,-1.8 -1.4,-3.7 -1.8,-5.5z"
                fill="#7eae18"></path>
            <path
                d="M168.2,356.6c-0.3,-0.2 -0.6,-0.4 -0.9,-0.5c-1.3,-0.7 -2.6,-1.5 -3.9,-2.3c-2.9,-1.8 -6,-3.7 -8.3,-6.2c-3.7,-4 -5.3,-8.2 -5.7,-13.1c-4.7,3 -9.7,5.4 -15.1,7c-12,3.6 -24.6,2.8 -36,-1.6c-0.2,5.5 -1.2,11 -5.5,15c-6.1,5.7 -14.6,9.1 -20,15.4c-5.3,6.1 -2.6,12.1 1.4,18c0.8,1.2 1.6,2.4 2.5,3.5c3.7,-19.7 27.7,-21.8 43.8,-24.5c15.2,-2.5 30.6,-4.3 45.3,-9c0.9,-0.3 1.7,-0.6 2.6,-0.9c-0.1,-0.1 -0.1,-0.5 -0.2,-0.8z"
                fill="#d0e272"></path>
            <path
                d="M342.1,456.2c-0.7,-1.5 -0.8,-3.2 -0.2,-4.6c0,-0.1 0.1,-0.3 0.2,-0.5c0,-1.3 0,-2.6 0,-4c-0.1,-3.4 -0.3,-6.9 -0.6,-10.3c-0.3,-5 -0.9,-9.9 -1,-14.9c-2.2,-1.4 -4.3,-2.9 -6.3,-4.3c-3.2,-2.2 -6.3,-4.6 -9.6,-6.6c-1.2,-0.7 -2.4,-1.4 -3.6,-1.9c-1.1,0.5 -2.2,0.5 -3.2,0.2c-0.1,0.7 -0.2,1.3 -0.4,2c-1.5,9.4 -3.4,19 -4.4,28.5c-0.6,5.4 -0.2,12 -2.4,17.1c0.9,1.4 1.2,3.3 0.6,4.9c10.4,-1 20.8,-2.8 30.9,-5.6z"
                fill="#7eae18"></path>
            <path
                d="M296.4,318.7c-0.9,-7 -1.4,-14.2 -1.1,-21.3c0,-0.4 0,-0.9 0,-1.3c-7.9,6.7 -16.9,12 -26.9,15c-21.3,6.4 -44.6,0.9 -61.4,-13.6c2,12.8 3.2,25.9 -0.4,38c7.8,4.2 15,9.3 22.8,13.3c8.9,4.7 18.7,6.3 28.7,6.4c8.3,0.1 18.3,1 25.4,-4.1c3.4,-2.4 11.5,-7.1 12,-10.4c0.6,-4.2 4.6,-5.1 7.6,-3.7c-3.8,-5.2 -5.8,-11.2 -6.7,-18.3zM341.9,451.5c-0.2,0.8 0.1,1.1 0.2,-0.2c0,-0.1 0,-0.1 0,-0.2c0,0.2 -0.1,0.3 -0.2,0.4zM173.6,232.1c-0.4,0 -0.9,-0.1 -1.4,-0.2c-7.8,-2 -14.3,-6.6 -19.1,-12.7c-0.6,0.4 -1.3,0.7 -2.1,0.7c-0.2,0 -0.4,0 -0.6,0l-3.8,-0.3c-1.9,1 -4.1,0.9 -5.7,-0.8c-1.7,-1.7 -1.9,-5.1 0.1,-6.7c0.2,-0.2 0.5,-0.4 0.7,-0.5c0.8,-0.9 1.8,-1.5 3,-1.6c0.8,-0.3 1.6,-0.5 2.5,-0.6c-2.5,-5.6 -3.8,-11.7 -3.9,-17.7c-0.1,-6.3 1.2,-13 4.1,-18.1c-0.3,-0.5 -0.5,-1 -0.6,-1.6c-1,-4.2 -1.9,-8.5 -2.7,-12.8c-2.5,1.7 -4.7,3.9 -6.9,6.1c-8.8,8.6 -19.7,12.7 -31.3,6.7c-9.6,-5 -16.3,-14.1 -26.1,-18.7c-0.1,0 -0.1,-0.1 -0.2,-0.1c-9.1,1 -15.8,6.3 -20.5,14.2c-4.7,7.9 -10.8,18.2 -9,27.8c0.3,1.5 -0.1,2.8 -0.8,3.8c1.5,13.6 3.6,27.2 6.1,40.6c2.6,13.7 5,27.6 8.8,41c5.7,20.1 15.3,40.8 35.5,49.7c17.2,7.6 36.3,3.6 50.5,-8.2c14.4,-12 24.7,-29 28.8,-47.3c1.1,-5 2,-10 2.8,-15c-3.3,-9 -6,-18.4 -8.2,-27.7zM92.6,218.9c-0.2,2.1 -1.4,4.1 -3.5,4.6c-1.4,0.3 -2.7,0.5 -4.1,0.7c-1.5,1 -3.6,1.2 -5.4,0.5c-0.6,-0.2 -1.2,-0.6 -1.7,-1c-1.4,0.1 -2.8,-0.4 -3.8,-1.4c-1.9,-2 -1.6,-4.8 0.1,-6.7c4.2,-4.8 19.2,-5.6 18.4,3.3zM108.6,241.7c-0.8,-6.4 -2,-12.7 -1.6,-19.2c0.4,-6.1 9.8,-6.1 9.5,0c-0.6,10.5 2.8,20.7 2,31.3c-0.2,3 -0.9,6.4 -0.4,9.4c0.4,1.9 1.1,3.1 2.2,3.8c2.9,-1.5 7.3,-0.2 6.9,4l-0.1,1.7c-0.3,3.3 -2.8,5.1 -6,4.5c-10.3,-1.9 -13.2,-10.4 -12.4,-19.8c0.4,-5.3 0.6,-10.4 -0.1,-15.7zM140.1,299.5c-3.3,4.3 -7.6,7.3 -13.3,7.2c-4.8,-0.1 -9.2,-1.6 -13.9,-2.5c-6,-1.2 -3.4,-10.4 2.6,-9.1c5.1,1.1 12.5,4.6 16.5,-0.4c3.7,-4.8 11.8,0 8.1,4.8z"
                fill="#f9fadf"></path>
            <path
                d="M303.2,395.3c-6.9,4.6 -13.8,9.3 -21.2,13.1c-2.5,1.3 -6.1,1.4 -7.6,-1.5c-3.8,-6.9 -7,-14.1 -10.4,-21.1c-2.3,-4.6 -5.7,-8.6 -8.3,-12.9c-8.8,8.8 -13.9,20.6 -19.8,31.4c-1.6,3 -5.9,4.3 -8.6,1.7c-5.9,-5.9 -12.1,-11.6 -18.8,-16.7c-4.6,-3.5 -9.6,-7.2 -15.1,-9.5c4.2,11.3 8.9,22.4 11.9,34.1c2.1,8.3 4.1,16.6 6.4,24.9c1,3.7 2,7.5 3.3,11.1c0.4,1.2 0.8,2.3 1.3,3.4c2,1.6 2.5,4.7 1.4,7c0.1,0 0.2,0 0.2,0c15,2 30.2,2.9 45.4,3c11,0.1 22.1,0.1 33.2,-0.5c0.1,-0.5 0.3,-1 0.5,-1.5c0.7,-1.4 1.6,-2.5 2.7,-3.5c-0.6,-1.3 -0.6,-2.8 0.3,-4.5c2.7,-4.9 1.4,-12.4 2.4,-17.8c1.8,-10 2.9,-20.1 4.8,-30.1c1,-5.1 2.1,-10.2 3.2,-15.3c-2.4,2 -4.8,3.6 -7.2,5.2zM260.4,403.5c0,1.5 -0.3,2.9 -1.4,4.1c-0.9,1.1 -2.3,1.7 -3.7,1.9c-1.5,0.1 -3,-0.4 -4.1,-1.4c-1,-0.9 -1.9,-2.3 -1.9,-3.7v-2c0,-1.5 0.3,-2.9 1.4,-4.1c0.9,-1.1 2.3,-1.7 3.7,-1.9c1.5,-0.1 3,0.4 4.1,1.4c1,0.9 1.9,2.3 1.9,3.7z"
                fill="#d0e272"></path>
            <path
                d="M206.4,458.6c-1.7,-3.2 -2.6,-7.3 -3.3,-9.7c-1.7,-5.8 -3.2,-11.6 -4.7,-17.4c-1.8,1.1 -3.6,2.2 -5.2,3.2c-3.1,1.9 -6.2,3.8 -9.2,5.6c0,0.2 0,0.4 0.1,0.7c0.2,1.1 0.5,2.2 0.8,3.3c0.7,2.3 1.7,4.9 2.6,6.4c0.9,1.4 1,2.8 0.8,4c6,1.5 12,2.8 18.1,3.9z"
                fill="#7eae18"></path>
            <path
                d="M162.6,176c-8.6,-1.5 -8.7,13.3 -8.1,18.7c1.1,10.3 6.8,20.5 16.2,25c-3.2,-14.4 -5.9,-29.1 -8.1,-43.7zM327.5,145.7c-0.7,-1.1 -1.1,-2.5 -0.8,-4.1c1,-6.2 -3.7,-14.2 -6.5,-19.4c-3.7,-6.8 -7.6,-13.3 -13.7,-18.2c-5.7,-4.6 -14.2,-8.9 -21.7,-6.8c-5.4,1.5 -9.1,5.6 -13,9.4c-10.3,9.9 -22.9,14.7 -36.3,7.7c-11.1,-5.8 -18.9,-16.4 -30.2,-21.7c-0.1,0 -0.1,-0.1 -0.2,-0.1c-10.5,1.2 -18.4,7.4 -23.8,16.4c-5.5,9.2 -12.5,21.2 -10.4,32.3c0.3,1.8 -0.1,3.2 -1,4.4c1.7,15.8 4.2,31.5 7.1,47.2c3,16 5.8,32 10.2,47.6c6.7,23.3 17.8,47.3 41.3,57.7c20,8.9 42.1,4.2 58.7,-9.6c16.7,-13.9 28.6,-33.7 33.4,-54.9c6.3,-28.5 7.5,-58.5 6.9,-87.9zM220,168.8c-0.2,2.4 -1.6,4.7 -4.1,5.3c-1.6,0.4 -3.2,0.6 -4.8,0.8c-1.7,1.2 -4.1,1.4 -6.3,0.6c-0.7,-0.3 -1.4,-0.7 -2,-1.2c-1.6,0.1 -3.3,-0.5 -4.4,-1.6c-2.2,-2.3 -1.9,-5.5 0.1,-7.8c5,-5.6 22.3,-6.4 21.5,3.9zM238.6,195.2c-0.9,-7.4 -2.3,-14.8 -1.8,-22.3c0.4,-7.1 11.4,-7 11,0c-0.7,12.2 3.3,24.1 2.3,36.3c-0.3,3.5 -1.1,7.5 -0.4,10.9c0.4,2.2 1.2,3.5 2.6,4.4c3.4,-1.8 8.4,-0.3 8.1,4.6l-0.2,2c-0.3,3.8 -3.3,5.9 -7,5.3c-11.9,-2.2 -15.3,-12.1 -14.4,-23c0.4,-6.1 0.5,-12 -0.2,-18.2zM275.1,262.4c-3.9,4.9 -8.9,8.5 -15.4,8.4c-5.5,-0.1 -10.7,-1.8 -16.1,-3c-7,-1.4 -3.9,-12 3,-10.6c5.9,1.2 14.5,5.4 19.1,-0.5c4.2,-5.5 13.7,0.1 9.4,5.7zM291.3,172c-1.1,-0.8 -2.1,-1.5 -3,-2c-0.2,0 -0.4,0.1 -0.6,0.1c-0.2,0 -0.4,0 -0.7,0l-4.4,-0.4c-1.1,0.6 -2.2,0.8 -3.3,0.7c-5.7,0.8 -8.3,-8.3 -2.2,-10.8c0.5,-0.2 1,-0.4 1.5,-0.6c0.6,-0.3 1.2,-0.5 1.9,-0.5c2.3,-0.8 4.7,-1 7,-0.2c3.9,0.6 7.5,2.5 11.1,5.4c5.5,4.4 -1.7,12.7 -7.3,8.3z"
                fill="#f9fadf"></path>
            <path
                d="M308.4,343c-0.8,-0.7 -1.5,-1.4 -2.1,-2.1c0.1,0.6 0.2,1.3 0.1,2c-0.9,6.4 -9.3,13.2 -14.7,16.1c-4.3,2.3 -7.9,4.8 -12.8,6c-4.7,1.2 -9.6,1.3 -14.4,1.3c1.1,2 2.4,3.7 4,5.4c2.2,2.3 3.5,5.9 5,8.8c2.6,5.3 5,10.6 7.7,15.8c4.8,-2.8 9.4,-5.9 14,-9c3.7,-2.4 7.4,-4.9 10.9,-7.6c0.9,-0.7 2.5,-1.9 2.9,-2.3c0.5,-0.5 0.8,-0.8 0.9,-1c0.8,-1.9 2.4,-2.8 4.2,-3c1.7,-7.8 3.4,-15.7 4.7,-23.5c-3.7,-1.8 -7.3,-4 -10.4,-6.9z"
                fill="#d0e272"></path>
            <path
                d="M141.3,120.2c-1.8,-0.6 -3.7,-1.2 -5.5,-1.7c-2.9,-0.9 -4.5,-4.4 -2.8,-7c1.2,-1.8 2.5,-3.5 3.8,-5.1c-4.8,1.1 -9.7,2.2 -14.9,1.5c-3.3,-0.5 -4,-4.6 -2.8,-7c0.1,-0.3 0.3,-0.6 0.5,-0.9c-11.6,0.3 -23.5,5.6 -33.9,9.8c-12.4,5 -24.3,12.4 -33.5,22.3c-9.7,10.4 -16,23.1 -17.4,37.3c-1.5,15.8 -0.2,31.5 3.2,46.9c1.2,-0.4 2.4,-0.6 3.8,-0.6c-1,-7.3 -1.8,-14.7 -2.5,-22c-0.1,-1.6 0.4,-2.7 1.2,-3.5c0.6,-10.2 5.8,-20.2 11.1,-28.7c6.7,-10.7 17.1,-17.2 29.9,-17.9c1.9,-0.1 3.2,0.7 3.9,1.9c10,5.1 17,16.2 27.9,19.3c13.1,3.8 18.4,-11.1 28.8,-15.4c0.2,-0.1 0.3,-0.1 0.5,-0.2c-1.3,-9.5 -1.8,-19.3 -1.3,-29z"
                fill="#4a2245"></path>
            <path
                d="M43.2,225.1c-7.4,-1.3 -7.5,11.5 -7,16.1c0.9,8.9 5.9,17.7 13.9,21.5c-2.7,-12.4 -5,-25 -6.9,-37.6z"
                fill="#f9fadf"></path>
            <path
                d="M177.1,366c-4.7,2 -9.6,3.5 -14.7,4.8c-0.3,0.1 -0.7,0.2 -1,0.2c0,0.1 0,0.3 0,0.4c0.2,13.3 4.6,26.3 5.5,39.6c0.4,5.8 0.7,11.7 1.6,17.5c0.4,2.4 0.8,5 1.5,7.5c1.7,-1.1 3.5,-2.2 5.2,-3.2c0.4,-0.4 0.9,-0.6 1.4,-0.8c3.3,-2 6.6,-4 9.9,-6c2.1,-1.3 4.1,-2.7 6.2,-4.1c0.5,-0.3 0.9,-0.7 1.4,-1c0.3,-0.5 0.7,-0.9 1.3,-1.2c-4.9,-18.4 -13.1,-35.5 -18.3,-53.7z"
                fill="#7eae18"></path>
            <path
                d="M341.1,176.2c-0.7,-1.7 -1.5,-3.3 -2.7,-4.6c-0.4,13.1 -1.3,26.3 -3,39.3c6.8,-1.5 8.1,-14.1 8.1,-20.1c0,-4.8 -0.4,-10.1 -2.4,-14.6z"
                fill="#f9fadf"></path>
            <path
                d="M462.7,186.9c-0.7,-1 -1,-2.3 -0.8,-3.7c0.9,-5.7 -3.4,-12.9 -5.9,-17.7c-3.3,-6.2 -6.9,-12.1 -12.5,-16.6c-5.2,-4.2 -12.9,-8.2 -19.8,-6.2c-4.9,1.4 -8.3,5.1 -11.8,8.6c-9.3,9.1 -20.8,13.4 -33.1,7c-9.3,-4.8 -16.1,-13.4 -25.1,-18.5c0,0.2 0,0.3 0,0.5c0.6,8.2 1.2,20.2 -5.2,26.3c4.9,7 6.3,17.4 6.1,25.2c-0.1,2.8 -0.4,5.9 -1,9c5.7,-0.6 11.7,1.3 11.2,7.1c-0.2,2.2 -1.4,4.3 -3.7,4.8c-1.4,0.3 -2.9,0.5 -4.3,0.7c-1.6,1.1 -3.8,1.2 -5.7,0.5c-0.7,-0.3 -1.2,-0.6 -1.8,-1c-3.2,5.3 -8,9.1 -15.1,9.1c-0.1,0 -0.2,0 -0.3,0c-1.3,8 -3,15.9 -5.4,23.5c1.8,9.3 3.8,18.7 6.4,27.8c6.1,21.3 16.2,43.2 37.6,52.6c18.2,8.1 38.4,3.9 53.5,-8.7c15.2,-12.7 26.1,-30.7 30.5,-50c5.7,-26.1 6.7,-53.5 6.2,-80.3zM381.6,232.1c-0.8,-6.8 -2.1,-13.5 -1.7,-20.3c0.4,-6.4 10.4,-6.4 10,0c-0.7,11.1 3,22 2.1,33.1c-0.3,3.2 -1,6.8 -0.4,10c0.4,2.1 1.1,3.2 2.4,4c3.1,-1.6 7.7,-0.2 7.3,4.2l-0.1,1.8c-0.3,3.5 -3,5.4 -6.4,4.8c-10.9,-2 -13.9,-11 -13.2,-21c0.5,-5.6 0.7,-11 0,-16.6zM414.9,293.3c-3.5,4.5 -8.1,7.8 -14.1,7.6c-5,-0.1 -9.8,-1.7 -14.7,-2.7c-6.3,-1.3 -3.6,-11 2.7,-9.7c5.4,1.1 13.2,4.9 17.4,-0.5c4,-4.9 12.7,0.2 8.7,5.3zM430.1,206.7c-0.7,1.4 -2,2.4 -3.7,2.5c-0.2,0 -0.4,0 -0.6,0l-4,-0.3c-2,1 -4.3,1 -6,-0.8c-1.8,-1.8 -2,-5.4 0.1,-7.1c0.2,-0.2 0.5,-0.4 0.8,-0.6c0.8,-0.9 1.9,-1.6 3.2,-1.7c3.3,-1.2 6.9,-0.9 9.6,2c0.1,0.1 0.2,0.2 0.3,0.3v0c0.1,0.1 0.1,0.2 0.2,0.2c0.6,0.8 0.9,1.8 0.9,2.9c-0.1,0.9 -0.3,1.8 -0.8,2.6z"
                fill="#f9fadf"></path>
            <path
                d="M475.9,176.2c-1.3,-9.3 -3.2,-18.7 -5.9,-27.8c-3.7,-12.6 -11.4,-23.5 -22.3,-30.7c-11.4,-7.6 -24.3,-12 -37.3,-16c-3,-0.9 -4.8,-4.6 -2.9,-7.4c1.2,-1.9 2.6,-3.7 4,-5.4c-5.1,1.1 -10.2,2.3 -15.7,1.6c-3.5,-0.5 -4.2,-4.8 -2.9,-7.4c0.2,-0.3 0.3,-0.6 0.5,-0.9c-12.3,0.3 -24.9,5.9 -35.9,10.4c-4.1,1.7 -8.1,3.6 -12,5.7c0.4,1.2 0.8,2.4 1.1,3.7c2.4,8.7 4.4,17.5 5.8,26.5c0.2,0 0.5,0 0.7,-0.1c2,-0.1 3.4,0.8 4.1,2.1c10.6,5.3 18,17.2 29.5,20.5c13.9,4 19.4,-11.8 30.5,-16.3c14.5,-6 30.6,2 39.8,13.7c4.4,5.5 7.9,11.8 10.7,18.3c2.2,5 4.1,10.1 4.3,15.5c0.5,0.7 0.8,1.6 0.8,2.7c0.1,4.9 0.2,9.9 0.1,14.8c0.2,0 0.3,0.1 0.5,0.2c0.4,-0.4 1,-0.6 1.6,-0.9c-0.4,0.1 0.3,-0.4 0.1,-0.1c0.4,-0.7 0.5,-0.8 0.7,-1.4c0.5,-1.7 0.8,-3.4 1,-5.2c0.2,-5.6 -0.2,-10.9 -0.9,-16.1z"
                fill="#0e0b00"></path>
            <path
                d="M341.9,133.9c-1.5,-10.2 -3.5,-20.5 -6.4,-30.4c-4,-13.8 -12.5,-25.7 -24.5,-33.7c-12.5,-8.3 -26.7,-13.1 -40.9,-17.5c-3.3,-1 -5.2,-5.1 -3.2,-8.1c1.3,-2.1 2.8,-4 4.4,-5.9c-5.6,1.2 -11.2,2.6 -17.3,1.7c-3.8,-0.5 -4.6,-5.3 -3.2,-8.1c0.2,-0.4 0.4,-0.7 0.6,-1c-13.5,0.4 -27.3,6.5 -39.4,11.4c-14.4,5.8 -28.2,14.4 -38.8,25.8c-11.3,12.1 -18.6,26.8 -20.2,43.3c-1.7,18.3 -0.3,36.6 3.7,54.5c1.4,-0.4 2.8,-0.7 4.4,-0.7c-1.1,-8.5 -2.1,-17 -2.9,-25.5c-0.2,-1.8 0.4,-3.1 1.4,-4c0.7,-11.9 6.7,-23.5 12.9,-33.4c7.7,-12.5 19.8,-20 34.7,-20.8c2.2,-0.1 3.7,0.9 4.5,2.3c11.6,5.9 19.7,18.8 32.4,22.5c15.2,4.4 21.3,-12.9 33.4,-17.9c15.9,-6.5 33.5,2.2 43.6,15c4.8,6.1 8.7,13 11.8,20.1c2.4,5.5 4.5,11.1 4.7,17c0.5,0.8 0.9,1.8 0.9,3c0.1,5.4 0.2,10.8 0.2,16.3c0.2,0 0.4,0.1 0.6,0.2c0.5,-0.4 1.1,-0.7 1.7,-0.9c-0.5,0.2 0.3,-0.5 0.1,-0.2c0.5,-0.8 0.6,-0.9 0.8,-1.6c0.6,-1.9 0.9,-3.8 1,-5.7c0.3,-6.1 -0.1,-11.9 -1,-17.7z"
                fill="#e23f12"></path>
            <path
                d="M229.3,361.1c-9.6,-4.2 -17.9,-10.4 -27.1,-15.4c-3.8,6.3 -9,11.2 -15.1,15.1c0.6,2.2 1.2,4.3 1.9,6.5c0.6,-0.1 1.3,0 2,0.2c14.7,3.7 27.5,14.7 38.5,25.3c5,-9.6 10.2,-19.5 17.9,-27.2c-6.2,-0.7 -12.4,-2 -18.1,-4.5z"
                fill="#d0e272"></path>
            <path
                d="M475.1,214.7c-0.7,-1.5 -1.4,-3 -2.5,-4.2c-0.4,12 -1.2,24 -2.8,35.8c6.2,-1.3 7.4,-12.9 7.4,-18.3c0.1,-4.3 -0.3,-9.2 -2.1,-13.3zM342.1,451.1v0c0.1,-0.4 0.1,-0.4 0,0z"
                fill="#f9fadf"></path>
            <path
                d="M354.5,382.7c0.2,-6.3 0.8,-12.5 0.9,-18.7c-6.7,-2.5 -13.4,-4.8 -20.1,-7.3c-2,-0.7 -4.1,-1.5 -6.2,-2.2c-2.7,14.6 -6.4,28.9 -9.3,43.5c4.3,-0.3 8.9,2.7 12.3,5c6,4 11.8,9 18.4,11.9c0.8,0.4 2.8,0.9 2.8,0.9c0.1,0 0.1,0 0.1,0c1.9,-4.1 1.7,-9.7 1.6,-14.1c0,-6.4 -0.7,-12.7 -0.5,-19z"
                fill="#7eae18"></path>
            <path d="M342.1,451.1v0c0.5,-0.8 1.2,-1.6 2.4,-2.1c-1.3,0.5 -2,1.4 -2.4,2.1z"
                fill="#f9fadf"></path>
            <path
                d="M468,360c-1.6,-5.5 -6.8,-5.8 -11.9,-5.6c-5.8,0.2 -11.9,1.1 -17.6,-0.5c-10.7,-3.1 -14.5,-12.5 -15.6,-22.4c-4.4,2.6 -9.1,4.8 -14.1,6.3c-14.3,4.3 -29.5,2.7 -42.6,-3.7c-0.4,4.6 -1.5,9 -4.2,12.9c-1.5,2.2 -3.5,3.9 -5.5,5.7c4.8,1.7 9.5,3.5 14.3,5.4c17.8,7.1 39,15.3 50.5,31.4c2.5,3.5 5.5,8 7.2,12.6c0.6,-0.3 1.3,-0.5 2.1,-0.6c9.4,-0.8 18.7,-8.7 24.9,-15.2c5.6,-6.1 15.2,-17.1 12.5,-26.3z"
                fill="#d0e272"></path>
            <path
                d="M414.9,399.8c-3.9,-6.2 -8,-10.8 -14.3,-14.7c-10.9,-6.9 -22.6,-12.3 -34.5,-17.1c-0.3,5.5 -0.9,11.1 -0.7,16.6c0.2,6.4 0.8,12.8 0.6,19.2c-0.2,7.7 -0.6,22.2 -11.3,22.8c-1,0.1 -2,0 -3,-0.1c0.3,5 0.8,9.9 1.1,14.9c0.2,2.8 0.9,7.4 0.3,11.2c22.3,-8 42.9,-20.5 58.7,-38.3c1.1,-1.2 2.4,-1.8 3.7,-1.8v0c6.4,-1.3 1.6,-9.2 -0.6,-12.7z"
                fill="#7eae18"></path>
            <path
                d="M342.1,451.1c-0.1,0.2 -0.1,0.3 -0.2,0.5c0.1,-0.2 0.2,-0.3 0.2,-0.5v0zM252.2,224.6c-1.3,-0.8 -2.2,-2.1 -2.6,-4.4c-0.7,-3.5 0.1,-7.5 0.4,-10.9c1,-12.2 -3,-24.1 -2.3,-36.3c0.4,-7.1 -10.6,-7.1 -11,0c-0.4,7.5 0.9,14.9 1.8,22.3c0.8,6.2 0.6,12.1 0.1,18.2c-0.8,10.9 2.5,20.8 14.4,23c3.7,0.7 6.7,-1.5 7,-5.3l0.2,-2c0.4,-4.8 -4.6,-6.4 -8,-4.6zM298.6,163.8c-3.6,-2.8 -7.2,-4.7 -11.1,-5.4c-2.2,-0.8 -4.7,-0.6 -7,0.2c-0.7,0 -1.3,0.2 -1.9,0.5c-0.5,0.2 -1,0.3 -1.5,0.6c-6.1,2.4 -3.4,11.5 2.2,10.8c1.1,0.1 2.3,-0.2 3.3,-0.7l4.4,0.4c0.2,0 0.4,0 0.7,0c0.2,0 0.4,0 0.6,-0.1c1,0.5 1.9,1.1 3,2c5.6,4.3 12.8,-4 7.3,-8.3zM198.6,164.8c-2,2.2 -2.3,5.5 -0.1,7.8c1.1,1.1 2.8,1.7 4.4,1.6c0.6,0.5 1.3,0.9 2,1.2c2.1,0.8 4.5,0.6 6.3,-0.6c1.6,-0.2 3.2,-0.4 4.8,-0.8c2.5,-0.6 3.9,-2.9 4.1,-5.3c0.7,-10.2 -16.6,-9.4 -21.5,-3.9zM265.6,256.7c-4.6,5.9 -13.2,1.7 -19.1,0.5c-6.9,-1.4 -9.9,9.2 -3,10.6c5.4,1.1 10.6,2.8 16.1,3c6.6,0.1 11.6,-3.4 15.4,-8.4c4.4,-5.6 -5.1,-11.2 -9.4,-5.7zM120.4,267c-1.2,-0.7 -1.9,-1.8 -2.2,-3.8c-0.6,-3 0.1,-6.4 0.4,-9.4c0.9,-10.5 -2.6,-20.8 -2,-31.3c0.4,-6.1 -9.1,-6.1 -9.5,0c-0.4,6.5 0.8,12.8 1.6,19.2c0.7,5.3 0.5,10.4 0.1,15.7c-0.7,9.4 2.2,18 12.4,19.8c3.2,0.6 5.8,-1.3 6,-4.5l0.1,-1.7c0.4,-4.2 -4,-5.6 -6.9,-4zM74.2,215.5c-1.7,1.9 -2,4.7 -0.1,6.7c0.9,1 2.4,1.5 3.8,1.4c0.5,0.4 1.1,0.7 1.7,1c1.8,0.7 3.9,0.6 5.4,-0.5c1.4,-0.2 2.7,-0.4 4.1,-0.7c2.2,-0.5 3.4,-2.5 3.5,-4.6c0.8,-8.8 -14.2,-8 -18.4,-3.3zM132,294.6c-4,5.1 -11.4,1.5 -16.5,0.4c-5.9,-1.2 -8.5,7.9 -2.6,9.1c4.6,1 9.1,2.4 13.9,2.5c5.6,0.1 10,-3 13.3,-7.2c3.7,-4.7 -4.4,-9.5 -8.1,-4.8z"
                fill="#000000"></path>
            <path
                d="M453,300.9c8.6,-13.7 12.8,-28.7 15.4,-44.4c0.1,0 0.2,0 0.2,0c14.1,0 18.3,-16.2 18.7,-27.6c0.2,-7.2 -1.1,-16.6 -5.6,-23c5.9,-5.5 5.4,-16.5 4.8,-24c-0.9,-11.8 -3.4,-23.6 -6.5,-35.1c-3.9,-14.2 -11.9,-26 -23.4,-35.1c-10.6,-8.4 -23.7,-13.4 -36.6,-17.6c2.4,-2.8 5,-5.4 7.4,-8.3c2.7,-3.4 1.3,-8.4 -3.5,-8.6c-5.8,-0.3 -11.6,2 -17.3,3.1c1.9,-2.4 0,-6.9 -3,-7.4c-16.8,-3 -33.4,3.6 -48.8,9.8c-4.5,1.8 -8.9,3.9 -13.2,6.2c-4.9,-9.9 -11.9,-18.5 -20.8,-25.6c-11.7,-9.2 -26,-14.7 -40.2,-19.3c2.6,-3.1 5.5,-6 8.1,-9.1c3,-3.7 1.4,-9.2 -3.8,-9.5c-6.4,-0.3 -12.7,2.2 -19,3.4c2.1,-2.7 0,-7.5 -3.2,-8.1c-18.5,-3.3 -36.7,3.9 -53.5,10.7c-16.4,6.6 -31.4,15.8 -43.7,28.6c-9.8,10.2 -16.8,22.3 -20.6,35.5c-4.3,0.5 -8.5,2 -12.7,2.8c1.8,-2.3 0,-6.5 -2.8,-7c-15.9,-2.8 -31.6,3.4 -46.1,9.2c-14.1,5.7 -27.1,13.6 -37.7,24.6c-10.9,11.3 -17.8,25.4 -19.9,41c-2.5,18.5 -0.5,37.5 3.8,55.6c0.1,0.5 0.3,1 0.5,1.4c-2.5,4.4 -3.6,10.2 -3.5,15.6c0.2,15.2 9.6,30.7 24.8,34.6c0.4,0.1 0.8,0.2 1.2,0.2c4.9,20.1 11.8,40.7 27.4,55.1c2.3,2.1 4.8,4.1 7.4,5.8c0,0.3 -0.1,0.6 -0.1,0.9c0,3.3 0.4,7.2 -1,10.2c-1.5,3.2 -6,5.4 -8.7,7.3c-8,5.5 -16.4,11 -18.7,21c-2,8.8 3.3,16.8 8.1,23.5c2.8,4 7.1,10.2 12.1,13.2c6.3,13.7 21.2,24.3 33.3,31.4c23.7,13.9 51.5,18.4 77.9,24.6c29,6.7 58.8,8.2 88.4,7.7c27,-0.5 53.2,-2.4 78.8,-11.6c23.1,-8.3 44.7,-21.7 61.3,-40c5.5,-1.6 9.2,-5 10.4,-10.6c0.6,0.2 1.3,0.3 2.1,0.2c11.4,-1 21.7,-8.9 29.8,-16.4c8.6,-8 17.1,-19.3 18,-31.4c0.4,-5.6 -0.8,-11.7 -4.9,-15.7c-5.1,-5 -12.1,-5.6 -18.9,-5.5c-5.7,0.1 -12.6,1.9 -17.4,-2.1c-4.6,-3.7 -4.5,-11.7 -4.5,-17.4c7.8,-6.3 14.4,-14.4 19.7,-22.8zM469.9,246.3c1.5,-11.9 2.4,-23.9 2.8,-35.8c1.1,1.2 1.8,2.7 2.5,4.2c1.8,4.1 2.1,8.9 2.1,13.3c0,5.5 -1.2,17 -7.4,18.3zM357.3,92.4c11,-4.4 23.6,-10 35.9,-10.4c-0.2,0.3 -0.3,0.6 -0.5,0.9c-1.2,2.6 -0.6,6.9 2.9,7.4c5.5,0.8 10.6,-0.4 15.7,-1.6c-1.4,1.7 -2.8,3.5 -4,5.4c-1.8,2.8 -0.1,6.5 2.9,7.4c13,4 25.9,8.4 37.3,16c10.9,7.3 18.7,18.2 22.3,30.7c2.6,9.1 4.5,18.4 5.9,27.8c0.7,5.2 1.1,10.6 0.8,15.8c-0.1,1.8 -0.4,3.5 -1,5.2c-0.2,0.6 -0.3,0.7 -0.7,1.4c0.2,-0.3 -0.5,0.3 -0.1,0.1c-0.6,0.2 -1.1,0.5 -1.6,0.9c-0.2,-0.1 -0.3,-0.1 -0.5,-0.2c0,-4.9 0,-9.9 -0.1,-14.8c0,-1.1 -0.3,-2 -0.8,-2.7c-0.1,-5.4 -2.1,-10.5 -4.3,-15.5c-2.8,-6.4 -6.4,-12.8 -10.7,-18.3c-9.2,-11.7 -25.3,-19.6 -39.8,-13.7c-11,4.5 -16.6,20.3 -30.5,16.3c-11.5,-3.3 -18.9,-15.1 -29.5,-20.5c-0.8,-1.3 -2.1,-2.2 -4.1,-2.1c-0.2,0 -0.5,0 -0.7,0.1c-1.4,-8.9 -3.4,-17.8 -5.8,-26.5c-0.3,-1.2 -0.7,-2.5 -1.1,-3.7c4,-1.8 8,-3.7 12.1,-5.4zM152.9,111.3c1.6,-16.5 8.9,-31.2 20.2,-43.3c10.7,-11.5 24.4,-20 38.8,-25.8c12,-4.9 25.9,-11 39.4,-11.4c-0.2,0.3 -0.4,0.7 -0.6,1c-1.4,2.8 -0.6,7.6 3.2,8.1c6,0.9 11.6,-0.5 17.3,-1.7c-1.6,1.9 -3.1,3.8 -4.4,5.9c-2,3.1 -0.1,7.1 3.2,8.1c14.3,4.4 28.4,9.2 40.9,17.5c12,8 20.5,19.9 24.5,33.7c2.9,9.9 5,20.2 6.4,30.4c0.8,5.7 1.2,11.6 0.9,17.4c-0.1,2 -0.5,3.8 -1,5.7c-0.2,0.7 -0.3,0.8 -0.8,1.6c0.2,-0.3 -0.5,0.3 -0.1,0.2c-0.7,0.2 -1.3,0.6 -1.7,0.9c-0.2,-0.1 -0.4,-0.1 -0.6,-0.2c0,-5.4 0,-10.8 -0.2,-16.3c0,-1.2 -0.4,-2.2 -0.9,-3c-0.1,-5.9 -2.3,-11.5 -4.7,-17c-3.1,-7.1 -7,-14 -11.8,-20.1c-10.1,-12.8 -27.7,-21.6 -43.6,-15c-12.1,5 -18.2,22.2 -33.4,17.9c-12.6,-3.6 -20.8,-16.6 -32.4,-22.5c-0.8,-1.4 -2.3,-2.4 -4.5,-2.3c-14.9,0.8 -26.9,8.3 -34.7,20.8c-6.1,9.9 -12.2,21.5 -12.9,33.4c-1,0.9 -1.6,2.2 -1.4,4c0.8,8.5 1.8,17 2.9,25.5c-1.6,0 -3.1,0.3 -4.4,0.7c-3.8,-17.6 -5.3,-35.9 -3.6,-54.2zM343.5,190.8c0,6 -1.3,18.6 -8.1,20.1c1.7,-13 2.6,-26.2 3,-39.3c1.2,1.3 2,3 2.7,4.6c2,4.5 2.4,9.8 2.4,14.6zM158.8,327.5c6.8,-6 12.6,-13.2 17.3,-20.7c6.3,-10.1 10.1,-20.9 12.7,-32.3c1.4,2.6 3,5.2 4.7,7.7c0,0.1 0,0.1 0,0.2c2.8,18.4 8.9,40.7 -0.6,58.1c-3.1,5.6 -7.9,9.5 -13.4,12.5c-1.4,-3.5 -6.3,-6.2 -9.3,-7.9c-5.3,-3 -10.4,-6.4 -9.8,-13.1c0.1,-1.9 -0.6,-3.4 -1.6,-4.5zM202.2,345.7c9.2,5 17.5,11.2 27.1,15.4c5.8,2.5 11.9,3.8 18.1,4.5c-7.7,7.6 -12.8,17.5 -17.9,27.2c-11,-10.7 -23.9,-21.6 -38.5,-25.3c-0.7,-0.2 -1.4,-0.2 -2,-0.2c-0.7,-2.1 -1.3,-4.3 -1.9,-6.5c6.1,-3.8 11.3,-8.7 15.1,-15.1zM229.4,349c-7.8,-4.1 -15,-9.2 -22.8,-13.3c3.6,-12.1 2.4,-25.3 0.4,-38c16.8,14.5 40,20 61.4,13.6c10,-3 19,-8.3 26.9,-15c0,0.4 0,0.9 0,1.3c-0.2,7.1 0.2,14.3 1.1,21.3c0.9,7 2.9,13 6.7,18.4c-3,-1.4 -7,-0.4 -7.6,3.7c-0.5,3.3 -8.6,8 -12,10.4c-7.2,5.1 -17.1,4.2 -25.4,4.1c-10,-0.3 -19.8,-1.9 -28.7,-6.5zM278.9,365c4.9,-1.2 8.5,-3.6 12.8,-6c5.3,-2.9 13.7,-9.7 14.7,-16.1c0.1,-0.7 0.1,-1.4 -0.1,-2c0.7,0.7 1.4,1.4 2.1,2.1c3.1,2.9 6.7,5.1 10.4,7c-1.4,7.9 -3,15.7 -4.7,23.5c-1.8,0.2 -3.4,1.1 -4.2,3c-0.1,0.2 -0.4,0.5 -0.9,1c-0.4,0.4 -2.1,1.6 -2.9,2.3c-3.5,2.7 -7.2,5.1 -10.9,7.6c-4.6,3 -9.2,6.2 -14,9c-2.7,-5.2 -5.1,-10.6 -7.7,-15.8c-1.4,-2.9 -2.7,-6.5 -5,-8.8c-1.6,-1.7 -3,-3.4 -4,-5.4c4.9,0 9.7,-0.2 14.4,-1.4zM311.3,329.9c-4.6,-6.4 -4.5,-15.4 -5,-23c-0.2,-4 -0.4,-8.1 -0.1,-12.1c0.1,-1.6 0.3,-3.2 0.6,-4.8c0.2,-1.1 1.1,-2.3 0.1,-1.6c2.3,-1.7 2.7,-4.3 1.9,-6.4c2.9,-3.6 5.6,-7.4 8,-11.3c1.1,-1.8 2.2,-3.7 3.2,-5.5c0.3,0.1 0.7,0.2 1,0.3c0.4,0.1 0.8,0.2 1.2,0.2c5.2,21.3 12.5,43.1 29,58.4c1.5,1.4 3,2.6 4.6,3.8c-0.3,0.7 -0.5,1.5 -0.5,2.4c-0.1,4.2 -0.5,8.2 -3.3,11.4c-2.2,2.5 -4.9,4.5 -7.4,6.7c-2.5,-0.9 -5.1,-1.8 -7.6,-2.7c-9.5,-3.5 -19.5,-7.2 -25.7,-15.8zM320.5,233.8c-4.8,21.2 -16.7,41 -33.4,54.9c-16.5,13.8 -38.7,18.4 -58.7,9.6c-23.5,-10.4 -34.6,-34.4 -41.3,-57.7c-4.5,-15.6 -7.3,-31.7 -10.2,-47.6c-2.9,-15.6 -5.4,-31.4 -7.1,-47.2c0.9,-1.1 1.3,-2.6 1,-4.4c-2.1,-11.1 4.9,-23.1 10.4,-32.3c5.4,-9.1 13.2,-15.2 23.8,-16.4c0.1,0 0.1,0.1 0.2,0.1c11.3,5.3 19.1,15.9 30.2,21.7c13.5,7 26.1,2.2 36.3,-7.7c3.9,-3.8 7.6,-7.9 13,-9.4c7.6,-2.1 16,2.2 21.7,6.8c6.1,4.9 10.1,11.4 13.7,18.2c2.8,5.2 7.5,13.2 6.5,19.4c-0.2,1.6 0.1,3 0.8,4.1c0.7,29.2 -0.5,59.2 -6.9,87.9zM170.7,219.7c-9.4,-4.5 -15.1,-14.7 -16.2,-25c-0.6,-5.4 -0.5,-20.3 8.1,-18.7c2.2,14.6 4.9,29.3 8.1,43.7zM34.9,169.3c1.4,-14.2 7.7,-26.9 17.4,-37.3c9.2,-9.9 21,-17.2 33.5,-22.3c10.4,-4.2 22.3,-9.5 33.9,-9.8c-0.2,0.3 -0.3,0.6 -0.5,0.9c-1.2,2.4 -0.5,6.5 2.8,7c5.2,0.7 10,-0.4 14.9,-1.5c-1.4,1.6 -2.7,3.3 -3.8,5.1c-1.7,2.7 -0.1,6.1 2.8,7c1.8,0.6 3.7,1.1 5.5,1.7c-0.4,9.7 0.1,19.4 1.3,29.1c-0.2,0.1 -0.3,0.1 -0.5,0.2c-10.4,4.3 -15.7,19.2 -28.8,15.4c-10.9,-3.1 -17.9,-14.3 -27.9,-19.3c-0.7,-1.2 -2,-2 -3.9,-1.9c-12.8,0.7 -23.2,7.2 -29.9,17.9c-5.3,8.5 -10.5,18.5 -11.1,28.7c-0.8,0.8 -1.4,1.9 -1.2,3.5c0.7,7.3 1.5,14.6 2.5,22c-1.4,0 -2.7,0.3 -3.8,0.6c-3.5,-15.4 -4.7,-31.2 -3.2,-47zM36.2,241.2c-0.5,-4.6 -0.5,-17.4 7,-16.1c1.9,12.6 4.2,25.2 7,37.7c-8.1,-4 -13,-12.7 -14,-21.6zM64.3,280.7c-3.8,-13.5 -6.3,-27.3 -8.8,-41c-2.5,-13.5 -4.7,-27 -6.1,-40.6c0.7,-1 1.1,-2.3 0.8,-3.8c-1.8,-9.6 4.3,-19.9 9,-27.8c4.7,-7.8 11.4,-13.1 20.5,-14.2c0.1,0 0.1,0.1 0.2,0.1c9.8,4.6 16.5,13.7 26.1,18.7c11.6,6 22.5,1.9 31.3,-6.7c2.2,-2.1 4.4,-4.4 6.9,-6.1c0.8,4.3 1.7,8.6 2.7,12.8c0.1,0.6 0.4,1.1 0.6,1.6c-2.9,5.1 -4.1,11.8 -4.1,18.1c0.1,6.1 1.4,12.1 3.9,17.7c-0.8,0.1 -1.7,0.3 -2.5,0.6c-1.2,0.1 -2.2,0.7 -3,1.6c-0.2,0.2 -0.5,0.4 -0.7,0.5c-2,1.6 -1.8,5 -0.1,6.7c1.6,1.7 3.8,1.8 5.7,0.8l3.8,0.3c0.2,0 0.4,0 0.6,0c0.8,0 1.5,-0.3 2.1,-0.7c4.8,6 11.3,10.7 19.1,12.7c0.5,0.1 0.9,0.2 1.4,0.2c2.3,9.3 4.9,18.7 8.4,27.7c-0.8,5 -1.7,10.1 -2.8,15c-4.1,18.2 -14.4,35.3 -28.8,47.3c-14.3,11.9 -33.3,15.9 -50.5,8.2c-20.3,-8.9 -29.9,-29.6 -35.7,-49.7zM76.7,391.9c-0.8,-1.2 -1.7,-2.3 -2.5,-3.5c-4,-5.9 -6.7,-11.9 -1.4,-18c5.5,-6.3 13.9,-9.8 20,-15.4c4.4,-4 5.3,-9.5 5.5,-15c11.4,4.4 24,5.2 36,1.6c5.4,-1.6 10.4,-4 15.1,-7c0.3,4.9 2,9.1 5.7,13.1c2.3,2.5 5.5,4.4 8.3,6.2c1.3,0.8 2.6,1.5 3.9,2.3c0.3,0.2 0.6,0.4 0.9,0.5c0,0.3 0.1,0.6 0.2,1c-0.9,0.3 -1.8,0.6 -2.6,0.9c-14.7,4.6 -30.2,6.5 -45.3,9c-16.1,2.5 -40.1,4.6 -43.8,24.3zM172.7,451.3c-25.6,-5.7 -51.1,-13 -71.3,-30.4c-4.3,-3.7 -8.5,-8.1 -11.3,-13.3c0.5,-2.2 -0.1,-4.5 -2.2,-5.6c-0.3,-1.2 -0.6,-2.5 -0.7,-3.8c-0.8,-8.4 5.3,-12.9 12.4,-15.5c7.6,-2.8 15.7,-3.4 23.6,-4.7c9.1,-1.5 18.2,-2.9 27.3,-4.6c0.5,13.3 4.7,26.3 5.6,39.6c0.7,10.6 0.4,25.1 7.3,33.9c1.9,2.4 5,3.2 7.6,1.5c1,-0.7 2,-1.3 3,-1.9c0.5,1.8 1.1,3.7 1.8,5.5c-1,-0.2 -2,-0.5 -3.1,-0.7zM175.3,432.8c-1.8,1.1 -3.5,2.1 -5.2,3.2c-0.8,-2.4 -1.2,-5 -1.5,-7.5c-0.9,-5.8 -1.2,-11.6 -1.6,-17.5c-0.9,-13.3 -5.3,-26.3 -5.5,-39.6c0,-0.1 0,-0.3 0,-0.4c0.3,-0.1 0.7,-0.2 1,-0.2c5.1,-1.3 10,-2.8 14.7,-4.8c5.1,18.2 13.4,35.3 18.3,53.6c-0.5,0.4 -1,0.8 -1.3,1.2c-0.5,0.3 -0.9,0.7 -1.4,1c-2,1.4 -4.1,2.8 -6.2,4.1c-3.3,2 -6.6,4 -9.9,6c-0.5,0.2 -0.9,0.5 -1.4,0.9zM188.3,454.8c0.3,-1.2 0.1,-2.6 -0.8,-4c-1,-1.5 -1.9,-4.2 -2.6,-6.4c-0.3,-1.1 -0.6,-2.2 -0.8,-3.3c0,-0.2 -0.1,-0.4 -0.1,-0.7c3.1,-1.9 6.2,-3.7 9.2,-5.6c1.7,-1 3.5,-2.1 5.2,-3.2c1.5,5.8 3,11.6 4.7,17.4c0.7,2.5 1.6,6.5 3.3,9.7c-6.1,-1.2 -12.1,-2.5 -18.1,-3.9zM307.2,405.6c-1.9,10 -3,20.1 -4.8,30.1c-1,5.4 0.3,12.9 -2.4,17.8c-0.9,1.7 -0.9,3.2 -0.3,4.5c-1.1,1 -2,2.1 -2.7,3.5c-0.3,0.5 -0.4,1 -0.5,1.5c-11.1,0.5 -22.2,0.5 -33.2,0.5c-15.2,-0.1 -30.3,-1 -45.4,-3c-0.1,0 -0.2,0 -0.2,0c1.1,-2.4 0.6,-5.5 -1.4,-7c-0.5,-1.1 -0.9,-2.3 -1.3,-3.4c-1.2,-3.7 -2.3,-7.4 -3.3,-11.1c-2.3,-8.3 -4.3,-16.6 -6.4,-24.9c-3,-11.7 -7.6,-22.8 -11.9,-34.1c5.5,2.3 10.5,6 15.1,9.5c6.7,5.1 12.9,10.8 18.8,16.7c2.6,2.6 7,1.3 8.6,-1.7c5.8,-10.8 11,-22.6 19.8,-31.4c2.6,4.4 6,8.3 8.3,12.9c3.5,7 6.7,14.2 10.4,21.1c1.6,2.9 5.2,2.7 7.6,1.5c7.4,-3.8 14.3,-8.5 21.2,-13.1c2.4,-1.6 4.8,-3.3 7.2,-5c-1.1,4.9 -2.2,10 -3.2,15.1zM342.1,451.1c0,0.1 0,0.1 0,0.2c-0.1,1.3 -0.4,1 -0.2,0.2c-0.6,1.5 -0.5,3.2 0.2,4.6c-10.1,2.9 -20.5,4.6 -31,5.7c0.6,-1.6 0.3,-3.5 -0.6,-4.9c2.2,-5.2 1.8,-11.7 2.4,-17.1c1,-9.5 2.9,-19 4.4,-28.5c0.1,-0.7 0.2,-1.3 0.4,-2c1,0.3 2.1,0.2 3.2,-0.2c1.3,0.5 2.5,1.2 3.6,1.9c3.3,2 6.4,4.4 9.6,6.6c2,1.4 4.1,2.9 6.3,4.3c0.1,5 0.7,10 1,14.9c0.2,3.4 0.5,6.9 0.6,10.3c0.1,1.3 0.1,2.7 0.1,4c0.1,-0.4 0.1,-0.4 0,0c0.3,-0.7 1,-1.6 2.4,-2.2c-1.1,0.6 -1.9,1.3 -2.4,2.2zM332.1,402.9c-3.4,-2.3 -8,-5.3 -12.3,-5c3,-14.5 6.6,-28.9 9.3,-43.5c2.1,0.8 4.1,1.5 6.2,2.2c6.7,2.4 13.4,4.8 20.1,7.3c-0.2,6.3 -0.8,12.5 -0.9,18.7c-0.2,6.3 0.5,12.6 0.6,18.9c0.1,4.4 0.3,10 -1.6,14.1h-0.1c0.1,0 -1.9,-0.6 -2.8,-0.9c-6.7,-2.8 -12.4,-7.8 -18.5,-11.8zM415.5,412.4v0c-1.3,0.1 -2.6,0.6 -3.7,1.9c-15.8,17.9 -36.4,30.3 -58.7,38.3c0.6,-3.8 -0.2,-8.4 -0.3,-11.2c-0.3,-4.9 -0.8,-9.9 -1.1,-14.9c1,0.1 2,0.2 3,0.1c10.8,-0.6 11.2,-15.1 11.3,-22.8c0.1,-6.4 -0.5,-12.8 -0.6,-19.2c-0.1,-5.5 0.4,-11.1 0.7,-16.6c11.9,4.8 23.6,10.2 34.5,17.1c6.2,3.9 10.4,8.5 14.3,14.7c2.2,3.5 7,11.4 0.6,12.6zM438.5,353.9c5.7,1.6 11.8,0.7 17.6,0.5c5.1,-0.2 10.3,0.1 11.9,5.6c2.7,9.2 -7,20.2 -12.6,26.2c-6.2,6.5 -15.5,14.4 -24.9,15.2c-0.8,0.1 -1.5,0.3 -2.1,0.6c-1.7,-4.6 -4.6,-9 -7.2,-12.6c-11.5,-16.1 -32.8,-24.3 -50.5,-31.4c-4.7,-1.9 -9.5,-3.7 -14.3,-5.4c2,-1.7 4,-3.5 5.5,-5.7c2.8,-3.9 3.8,-8.3 4.2,-12.9c13.1,6.4 28.3,7.9 42.6,3.7c5,-1.5 9.7,-3.6 14.1,-6.3c1.3,10 5,19.4 15.7,22.5zM425.8,317.2c-15.1,12.6 -35.2,16.8 -53.5,8.7c-21.4,-9.5 -31.5,-31.4 -37.6,-52.6c-2.6,-9.1 -4.6,-18.5 -6.4,-27.8c2.4,-7.6 4.1,-15.5 5.4,-23.5c0.1,0 0.2,0 0.3,0c7.1,0 12,-3.8 15.1,-9.1c0.5,0.4 1.1,0.8 1.8,1c1.9,0.7 4.1,0.6 5.7,-0.5c1.4,-0.2 2.9,-0.4 4.3,-0.7c2.3,-0.5 3.6,-2.6 3.7,-4.8c0.5,-5.9 -5.5,-7.8 -11.2,-7.1c0.6,-3.1 0.9,-6.2 1,-9c0.2,-7.9 -1.2,-18.3 -6.1,-25.2c6.5,-6.1 5.9,-18.1 5.2,-26.3c0,-0.2 0,-0.3 0,-0.5c9.1,5.1 15.8,13.7 25.1,18.5c12.3,6.4 23.8,2 33.1,-7c3.5,-3.4 6.9,-7.2 11.8,-8.6c6.9,-1.9 14.6,2 19.8,6.2c5.6,4.5 9.2,10.4 12.5,16.6c2.5,4.8 6.8,12 5.9,17.7c-0.2,1.4 0.1,2.7 0.8,3.7c0.6,26.7 -0.5,54.1 -6.4,80.3c-4.2,19.3 -15.1,37.4 -30.3,50z"
                fill="#000000"></path>
            <path
                d="M394,258.8c-1.2,-0.8 -2,-1.9 -2.4,-4c-0.6,-3.2 0.1,-6.8 0.4,-10c0.9,-11.1 -2.7,-22 -2.1,-33.1c0.4,-6.5 -9.6,-6.5 -10,0c-0.4,6.8 0.8,13.5 1.7,20.3c0.7,5.6 0.5,11 0.1,16.6c-0.8,9.9 2.3,19 13.2,21c3.4,0.6 6.1,-1.4 6.4,-4.8l0.1,-1.8c0.3,-4.4 -4.3,-5.8 -7.4,-4.2zM429.9,201.2c-0.1,-0.1 -0.1,-0.2 -0.2,-0.2v0c-0.1,-0.1 -0.2,-0.2 -0.3,-0.3c-2.7,-2.9 -6.3,-3.2 -9.6,-2c-1.2,0.1 -2.4,0.7 -3.2,1.7c-0.3,0.2 -0.5,0.4 -0.8,0.6c-2.1,1.7 -1.9,5.3 -0.1,7.1c1.7,1.8 4.1,1.9 6,0.8l4,0.3c0.2,0 0.4,0 0.6,0c1.7,-0.1 3,-1.1 3.7,-2.5c0.5,-0.8 0.7,-1.7 0.7,-2.5c0.2,-1.2 -0.2,-2.2 -0.8,-3zM406.3,288.1c-4.2,5.4 -12.1,1.6 -17.4,0.5c-6.3,-1.3 -9,8.3 -2.7,9.7c4.9,1 9.6,2.6 14.7,2.7c6,0.1 10.5,-3.1 14.1,-7.6c3.9,-5.2 -4.8,-10.3 -8.7,-5.3zM258.6,397.8c-1.1,-1 -2.6,-1.5 -4.1,-1.4c-1.4,0.1 -2.8,0.8 -3.7,1.9c-1,1.2 -1.4,2.5 -1.4,4.1v2c0,1.4 0.9,2.8 1.9,3.7c1.1,1 2.6,1.5 4.1,1.4c1.4,-0.1 2.8,-0.8 3.7,-1.9c1,-1.2 1.4,-2.5 1.4,-4.1v-2c-0.1,-1.4 -0.9,-2.9 -1.9,-3.7z"
                fill="#000000"></path>
        </g>
    </g>
</svg>