<svg version="1.1" xmlns="http://www.w3.org/2000/svg" xmlns:xlink="http://www.w3.org/1999/xlink"
    width="64px" height="64px" viewBox="0,0,256,256">
    <defs>
        <linearGradient x1="17.87164" y1="14.77289" x2="27.77114" y2="4.87339"
            gradientUnits="userSpaceOnUse" id="color-1">
            <stop offset="0" stop-color="#157947"></stop>
            <stop offset="1" stop-color="#7ea894"></stop>
        </linearGradient>
        <linearGradient x1="551.19704" y1="179.79805" x2="819.89461" y2="179.79805"
            gradientUnits="userSpaceOnUse" id="color-2">
            <stop offset="0" stop-color="#157947"></stop>
            <stop offset="1" stop-color="#7ea894"></stop>
        </linearGradient>
        <linearGradient x1="373.67024" y1="141.49039" x2="568.91038" y2="141.49039"
            gradientUnits="userSpaceOnUse" id="color-3">
            <stop offset="0" stop-color="#157947"></stop>
            <stop offset="1" stop-color="#7ea894"></stop>
        </linearGradient>
        <linearGradient x1="19" y1="38.5" x2="45" y2="38.5" gradientUnits="userSpaceOnUse"
            id="color-4">
            <stop offset="0" stop-color="#cb7415"></stop>
            <stop offset="1" stop-color="#e7ba85"></stop>
        </linearGradient>
    </defs>
    <g fill="none" fill-rule="nonzero" stroke="none" stroke-width="1" stroke-linecap="butt"
        stroke-linejoin="miter" stroke-miterlimit="10" stroke-dasharray="" stroke-dashoffset="0"
        font-family="none" font-weight="none" font-size="none" text-anchor="none"
        style="mix-blend-mode: normal">
        <g transform="scale(4,4)">
            <path
                d="M22.55,3.91c-0.97756,-1.1415 -2.51247,-1.63873 -3.97368,-1.28724c-1.4612,0.35149 -2.60208,1.49236 -2.95356,2.95356c-0.35149,1.4612 0.14574,2.99612 1.28724,3.97368c-0.68563,1.16771 -0.73393,2.60302 -0.12835,3.81417c0.60558,1.21116 1.78281,2.0337 3.12835,2.18583c0.38231,2.02019 2.23388,3.42151 4.28196,3.24072c2.04808,-0.18079 3.62553,-1.8848 3.64804,-3.94072c2.05592,-0.02251 3.75993,-1.59996 3.94072,-3.64804c0.18079,-2.04808 -1.22053,-3.89965 -3.24072,-4.28196c-0.15064,-1.34425 -0.97046,-2.5213 -2.17911,-3.12866c-1.20865,-0.60735 -2.64237,-0.56271 -3.81089,0.11866z"
                fill="url(#color-1)"></path>
            <path
                d="M41.45,3.91c0.97756,-1.1415 2.51247,-1.63873 3.97368,-1.28724c1.4612,0.35149 2.60208,1.49236 2.95356,2.95356c0.35149,1.4612 -0.14574,2.99612 -1.28724,3.97368c0.68563,1.16771 0.73393,2.60302 0.12835,3.81417c-0.60558,1.21116 -1.78281,2.0337 -3.12835,2.18583c-0.38231,2.02019 -2.23388,3.42151 -4.28196,3.24072c-2.04808,-0.18079 -3.62553,-1.8848 -3.64804,-3.94072c-2.05592,-0.02251 -3.75993,-1.59996 -3.94072,-3.64804c-0.18079,-2.04808 1.22053,-3.89965 3.24072,-4.28196c0.15064,-1.34425 0.97046,-2.5213 2.17911,-3.12866c1.20865,-0.60735 2.64237,-0.56271 3.81089,0.11866z"
                fill="url(#color-2)"></path>
            <path
                d="M29.54,15.12l-1.42,1.42l-6.36,-6.37c-0.33978,-0.39676 -0.31693,-0.98819 0.05244,-1.35756c0.36937,-0.36937 0.9608,-0.39221 1.35756,-0.05244z"
                fill="#ffffff"></path>
            <path
                d="M34.46,15.12l1.42,1.42l6.36,-6.37c0.33978,-0.39676 0.31693,-0.98819 -0.05244,-1.35756c-0.36937,-0.36937 -0.9608,-0.39221 -1.35756,-0.05244z"
                fill="#ffffff"></path>
            <path
                d="M36,4.14c0,-2.20914 -1.79086,-4 -4,-4c-2.20914,0 -4,1.79086 -4,4c-1.30542,0.34686 -2.34762,1.3291 -2.77112,2.61171c-0.4235,1.2826 -0.1711,2.69231 0.67112,3.74829c-1.17001,1.69815 -0.85725,4.00747 0.72229,5.33325c1.57954,1.32578 3.90811,1.23344 5.37771,-0.21325c1.4696,1.44669 3.79817,1.53903 5.37771,0.21325c1.57954,-1.32578 1.89229,-3.6351 0.72229,-5.33325c0.84222,-1.05598 1.09462,-2.46569 0.67112,-3.74829c-0.4235,-1.2826 -1.4657,-2.26485 -2.77112,-2.61171z"
                fill="url(#color-3)"></path>
            <path d="M33,17h-2v-9c0,-0.55228 0.44772,-1 1,-1c0.55228,0 1,0.44772 1,1z"
                fill="#ffffff"></path>
            <path
                d="M45,26c0,7.2 -5.83,38 -13,38c-7.17,0 -13,-30.92 -13,-38c0,-7.1797 5.8203,-13 13,-13c7.1797,0 13,5.8203 13,13z"
                fill="url(#color-4)"></path>
            <path
                d="M45,27h-10c-0.55228,0 -1,-0.44772 -1,-1c0,-0.55228 0.44772,-1 1,-1h10c0.04501,0.66591 0.04501,1.33409 0,2z"
                fill="#ffffff"></path>
            <path
                d="M42.36,43c-0.15,0.67 -0.31,1.33 -0.47,2h-4.89c-0.55228,0 -1,-0.44772 -1,-1c0,-0.55228 0.44772,-1 1,-1z"
                fill="#ffffff"></path>
            <path
                d="M32,36c0,0.55228 -0.44772,1 -1,1h-10.62c-0.12,-0.68 -0.24,-1.35 -0.35,-2h10.97c0.55228,0 1,0.44772 1,1z"
                fill="#ffffff"></path>
            <path
                d="M30,54c0,0.55228 -0.44772,1 -1,1h-3.85c-0.25,-0.65 -0.49,-1.31 -0.72,-2h4.57c0.55228,0 1,0.44772 1,1z"
                fill="#ffffff"></path>
        </g>
    </g>
</svg>