<svg version="1.1" xmlns="http://www.w3.org/2000/svg" xmlns:xlink="http://www.w3.org/1999/xlink"
    width="48px" height="48px" viewBox="0,0,256,256">
    <g fill="none" fill-rule="nonzero" stroke="none" stroke-width="none" stroke-linecap="none"
        stroke-linejoin="none" stroke-miterlimit="none" stroke-dasharray="" stroke-dashoffset="0"
        font-family="none" font-weight="none" font-size="none" text-anchor="none"
        style="mix-blend-mode: normal">
        <g transform="scale(5.33333,5.33333)">
            <circle cx="19.491" cy="16.538" r="8.468" fill="#174feb" stroke="none" stroke-width="1"
                stroke-linecap="butt" stroke-linejoin="miter" stroke-miterlimit="10"></circle>
            <path
                d="M33.937,35.413c0,12.691 -28.891,12.691 -28.891,0v-0.011c0,-2.914 2.226,-5.277 4.971,-5.277h18.95c2.745,0 4.971,2.363 4.971,5.277l-0.001,0.011z"
                fill="#174feb" stroke="none" stroke-width="1" stroke-linecap="butt"
                stroke-linejoin="miter" stroke-miterlimit="10"></path>
            <path d="M19.383,40.013l-3.058,-7.644l2.085,-4.518h-5.838l2.085,4.518l-3.058,7.644z"
                fill="#18193f" stroke="none" stroke-width="1" stroke-linecap="butt"
                stroke-linejoin="miter" stroke-miterlimit="10"></path>
            <path
                d="M14.024,4.63c0.476,-0.085 0.966,-0.13 1.467,-0.13c4.568,0 8.27,3.703 8.27,8.27c0,4.567 -3.703,8.27 -8.27,8.27c-4.567,0 -8.27,-3.703 -8.27,-8.27c0,-0.976 0.169,-1.913 0.48,-2.782"
                fill="none" stroke="#18193f" stroke-width="3" stroke-linecap="round"
                stroke-linejoin="round" stroke-miterlimit="5"></path>
            <path
                d="M19.383,40.188c-8.077,1.324 -18,-1.572 -18,-8.688v-0.01c0,-2.756 2.174,-4.99 4.855,-4.99h18.507"
                fill="none" stroke="#18193f" stroke-width="3" stroke-linecap="round"
                stroke-linejoin="round" stroke-miterlimit="10"></path>
            <path d="M8.624,31.014l2.675,8.144" fill="none" stroke="#18193f" stroke-width="3"
                stroke-linecap="round" stroke-linejoin="round" stroke-miterlimit="10"></path>
            <path d="M21.969,32.213l-2.586,7.975" fill="none" stroke="#18193f" stroke-width="3"
                stroke-linecap="round" stroke-linejoin="round" stroke-miterlimit="10"></path>
            <path
                d="M42.4,43l0.5,0.2c0.3,0.1 0.6,0 0.8,-0.2c0.9,-1 1.6,-2.2 2,-3.5c0.1,-0.3 0,-0.6 -0.2,-0.8l-0.5,-0.4c-0.6,-0.5 -1,-1.3 -1,-2.1c0,-0.8 0.4,-1.6 1,-2.1l0.5,-0.4c0.2,-0.2 0.3,-0.5 0.2,-0.8c-0.4,-1.3 -1.1,-2.5 -2,-3.5c-0.2,-0.2 -0.5,-0.3 -0.8,-0.2l-0.5,0.2c-0.4,0.2 -0.9,0.2 -1.4,0.2c-1.2,-0.2 -2,-1.1 -2.2,-2.2l-0.1,-0.7c-0.1,-0.3 -0.3,-0.6 -0.6,-0.6c-0.6,-0.1 -1.3,-0.2 -2,-0.2c-0.7,0 -1.4,0.1 -2,0.2"
                fill="none" stroke="#18193f" stroke-width="3" stroke-linecap="round"
                stroke-linejoin="round" stroke-miterlimit="10"></path>
            <path
                d="M29.7,29.5l-0.5,-0.2c-0.3,-0.1 -0.6,0 -0.8,0.2c-0.9,1 -1.6,2.2 -2,3.5c-0.1,0.3 0,0.6 0.2,0.8l0.5,0.4c0.6,0.5 1,1.3 1,2.1c0,0.8 -0.4,1.6 -1,2.1l-0.5,0.4c-0.2,0.2 -0.3,0.5 -0.2,0.8c0.4,1.3 1.1,2.5 2,3.5c0.2,0.2 0.5,0.3 0.8,0.2l0.5,-0.2c0.4,-0.2 0.9,-0.2 1.4,-0.2c1.2,0.2 2,1.1 2.2,2.2l0.1,0.6c0.1,0.3 0.3,0.6 0.6,0.6c0.6,0.1 1.3,0.2 2,0.2c0.7,0 1.4,-0.1 2,-0.2"
                fill="none" stroke="#18193f" stroke-width="3" stroke-linecap="round"
                stroke-linejoin="round" stroke-miterlimit="10"></path>
            <circle cx="36" cy="36.3" r="2.7" fill="none" stroke="#18193f" stroke-width="3"
                stroke-linecap="butt" stroke-linejoin="miter" stroke-miterlimit="10"></circle>
        </g>
    </g>
</svg>